<svg xmlns="http://www.w3.org/2000/svg" width="132px" height="42px" viewBox="0 0 132 42">
<path fill="#00A9E0" d="M84.929,0.022H46.294c-0.348,0-0.623,0.279-0.623,0.625V39.28c0,0.343,0.275,0.625,0.623,0.625h38.634
c0.348,0,0.624-0.282,0.624-0.625V0.646C85.553,0.301,85.277,0.022,84.929,0.022"/>
<path fill="#00A9E0" d="M131.204,18.263c-0.803-9.761-8.485-17.434-18.336-18.245L91.949,0.023c-0.347,0-0.623,0.278-0.623,0.623
V39.28c0,0.343,0.276,0.625,0.623,0.625h20.937c0.016,0,0.035-0.002,0.048-0.002c9.787-0.813,17.473-8.502,18.275-18.34
L131.204,18.263z"/>
<path fill="#00B388" d="M39.895,0.646c-0.004-0.345-0.28-0.623-0.625-0.623L18.246,0.027C8.475,0.822,0.801,8.514,0,18.366
l0.007,3.297c0.796,9.772,8.488,17.438,18.289,18.242c0.013,0.003,0.036,0.003,0.048,0.003l20.919-0.003
c0.346,0,0.627-0.282,0.627-0.625c0-4.221,0.008-8.447,0.012-12.67C39.913,18.619,39.924,9.559,39.895,0.646"/>
<path fill="#FFFFFF" d="M33.099,26.237c-0.436,0.725-0.953,1.406-1.531,2.029c-0.729,0.789-1.565,1.476-2.476,2.044
c-0.917,0.571-1.93,1.018-3.003,1.328c-1.074,0.308-2.21,0.463-3.37,0.463c-1.675,0-3.263-0.319-4.726-0.954
c-1.478-0.634-2.776-1.515-3.865-2.596c-1.091-1.089-1.964-2.387-2.593-3.856c-0.638-1.474-0.958-3.064-0.958-4.731
c0-1.643,0.32-3.225,0.958-4.694c0.628-1.47,1.502-2.771,2.599-3.87c1.091-1.104,2.387-1.983,3.852-2.619
c1.469-0.631,3.067-0.952,4.732-0.952c1.123,0,2.231,0.149,3.284,0.454c1.045,0.298,2.035,0.722,2.936,1.271
c0.902,0.541,1.726,1.207,2.444,1.962c0.566,0.592,1.07,1.247,1.515,1.936c0.093,0.145,0.116,0.325,0.075,0.499
c-0.044,0.161-0.16,0.305-0.31,0.388l-0.652,0.349c-0.317,0.168-0.621,0.321-0.912,0.47l-0.975,0.486
c-0.242,0.118-0.521,0.262-0.867,0.426c-0.275,0.132-0.612,0.045-0.786-0.213c-0.559-0.824-1.298-1.505-2.201-2.044
c-1.07-0.634-2.26-0.951-3.551-0.951c-0.979,0-1.909,0.19-2.772,0.567c-0.858,0.381-1.616,0.894-2.26,1.527
c-0.646,0.632-1.161,1.396-1.523,2.261c-0.37,0.871-0.557,1.796-0.557,2.749c0,0.981,0.187,1.909,0.557,2.767
c0.362,0.86,0.878,1.623,1.523,2.264c0.646,0.646,1.407,1.161,2.262,1.527c0.861,0.364,1.791,0.554,2.77,0.554
c1.333,0,2.567-0.341,3.674-1.027c0.931-0.57,1.697-1.315,2.275-2.209c0.176-0.268,0.523-0.362,0.813-0.216l0.831,0.434
c0.354,0.178,0.667,0.347,0.954,0.504c0.296,0.158,0.592,0.313,0.908,0.468c0.182,0.092,0.408,0.195,0.663,0.321
c0.159,0.078,0.281,0.215,0.331,0.386C33.215,25.904,33.196,26.089,33.099,26.237"/>
<path fill="#FFFFFF" d="M77.982,31.313c0,0.344-0.273,0.623-0.626,0.623h-3.208c-0.343,0-0.627-0.279-0.627-0.623V14.967
l-5.789,16.546c-0.085,0.253-0.318,0.422-0.594,0.422h-3.167c-0.258,0-0.497-0.169-0.584-0.418l-5.721-16.38
c0.004,0.022-0.052,0-0.071,0v16.175c0,0.344-0.279,0.623-0.627,0.623h-3.106c-0.346,0-0.631-0.279-0.631-0.623V8.618
c0-0.342,0.285-0.624,0.631-0.624h5.762c0.269,0,0.509,0.176,0.594,0.426l5.327,16.169L70.904,8.42
c0.081-0.25,0.321-0.426,0.594-0.426h5.859c0.353,0,0.626,0.282,0.626,0.624V31.313z"/>
<path fill="#FFFFFF" d="M120.159,14.632c-0.548-1.469-1.313-2.711-2.28-3.688c-0.969-0.981-2.136-1.724-3.45-2.213
c-1.321-0.486-2.774-0.737-4.314-0.737h-9.703c-0.346,0-0.621,0.282-0.621,0.624v22.695c0,0.344,0.274,0.623,0.621,0.623h9.703
c1.823,0,3.432-0.313,4.782-0.923c1.347-0.615,2.485-1.462,3.386-2.531c0.898-1.07,1.583-2.355,2.03-3.823
c0.445-1.474,0.667-3.095,0.667-4.829C120.979,17.855,120.699,16.104,120.159,14.632 M115.214,23.688
c-0.335,0.91-0.786,1.657-1.34,2.226c-0.558,0.568-1.204,0.981-1.917,1.226c-0.711,0.244-1.453,0.371-2.21,0.371h-4.695V12.419
h3.751c1.292,0,2.397,0.183,3.274,0.551c0.874,0.366,1.594,0.909,2.13,1.596c0.533,0.688,0.922,1.527,1.159,2.5
c0.229,0.969,0.35,2.067,0.35,3.264C115.716,21.646,115.543,22.775,115.214,23.688"/>
</svg>