<svg xmlns="http://www.w3.org/2000/svg" width="245px" height="42px" viewBox="0 0 245 42">
<polygon fill="#003594" points="146.448,0.081 146.448,7.489 149.926,7.489 149.926,0.081 151.513,0.081 151.513,7.526 
152.329,7.568 152.24,10.95 151.022,10.95 150.934,8.795 144.851,8.795 144.851,0.081 	"/>
<polygon fill="#003594" points="158.78,4.931 155.496,4.931 155.496,7.487 159.175,7.487 159.175,8.793 153.909,8.793 
153.909,0.081 158.978,0.081 158.978,1.383 155.496,1.383 155.496,3.635 158.78,3.635 	"/>
<polygon fill="#003594" points="162.479,0.081 162.479,3.573 166.167,3.573 166.167,0.081 167.756,0.081 167.756,8.795 
166.167,8.795 166.167,4.954 162.479,4.954 162.479,8.795 160.888,8.795 160.888,0.081 	"/>
<polygon fill="#003594" points="171.573,1.41 169.086,1.41 169.086,0.081 175.668,0.081 175.668,1.41 173.156,1.41 173.156,8.793 
171.573,8.793 	"/>
<path fill="#003594" d="M177.016,0.196c0.575-0.102,1.367-0.18,2.427-0.18c1.168,0,2.003,0.246,2.563,0.711
c0.519,0.425,0.849,1.112,0.849,1.923c0,0.834-0.259,1.501-0.736,1.964c-0.64,0.638-1.63,0.946-2.75,0.946
c-0.304,0-0.56-0.015-0.779-0.062v3.295h-1.573V0.196z M178.589,4.242c0.211,0.066,0.452,0.081,0.779,0.081
c1.188,0,1.912-0.594,1.912-1.608c0-0.968-0.67-1.469-1.771-1.469c-0.445,0-0.754,0.035-0.921,0.076V4.242z"/>
<path fill="#003594" d="M152.431,20.757c-0.052-1.126-0.115-2.484-0.102-3.664h-0.039c-0.28,1.068-0.645,2.242-1.038,3.341
l-1.276,3.771h-1.215l-1.162-3.722c-0.334-1.113-0.648-2.301-0.888-3.39h-0.02c-0.039,1.141-0.093,2.521-0.156,3.715l-0.19,3.497
h-1.494l0.589-8.709h2.09l1.14,3.502c0.309,1.021,0.584,2.06,0.801,3.028h0.037c0.236-0.945,0.534-2.02,0.87-3.038l1.203-3.492
h2.066l0.506,8.709h-1.555L152.431,20.757z"/>
<path fill="#003594" d="M163.772,19.863c0,2.92-1.773,4.588-4.163,4.588c-2.471,0-4.022-1.883-4.022-4.429
c0-2.692,1.691-4.583,4.152-4.583C162.271,15.439,163.772,17.369,163.772,19.863 M157.267,19.977c0,1.786,0.889,3.196,2.419,3.196
c1.534,0,2.404-1.437,2.404-3.256c0-1.644-0.812-3.196-2.404-3.196C158.107,16.721,157.267,18.182,157.267,19.977"/>
<path fill="#003594" d="M171.554,15.597v8.711h-1.586v-7.407h-2.382v2.331c0,2.078-0.193,3.979-1.456,4.783
c-0.393,0.215-0.944,0.414-1.552,0.414l-0.213-1.281c0.403-0.052,0.749-0.25,0.959-0.463c0.61-0.611,0.706-1.992,0.706-3.337v-3.75
H171.554z"/>
<polygon fill="#003594" points="178.589,20.444 175.308,20.444 175.308,23.002 178.976,23.002 178.976,24.306 173.712,24.306 
173.712,15.597 178.784,15.597 178.784,16.901 175.308,16.901 175.308,19.15 178.589,19.15 	"/>
<path fill="#003594" d="M182.264,15.597v3.738h0.241l2.679-3.738h1.914l-3.151,3.931c1.264,0.233,1.795,1.059,2.194,2.161
c0.326,0.91,0.582,1.798,0.983,2.619h-1.708c-0.307-0.591-0.499-1.317-0.723-1.974c-0.35-1.06-0.816-1.826-2.069-1.826h-0.36v3.799
h-1.578v-8.711H182.264z"/>
<path fill="#003594" d="M189.62,15.597l1.474,3.401c0.232,0.565,0.426,1.082,0.614,1.602h0.051c0.119-0.4,0.277-0.942,0.497-1.627
l1.124-3.376h1.685l-1.72,4.38c-0.508,1.267-1.048,2.592-1.68,3.402c-0.571,0.71-1.257,1.116-2.162,1.116
c-0.393,0-0.625-0.044-0.812-0.12l0.112-1.279c0.142,0.039,0.307,0.052,0.559,0.052c0.737,0,1.188-0.619,1.408-1.114
c0.08-0.165,0.05-0.283-0.025-0.466l-2.92-5.971H189.62z"/>
<path fill="#003594" d="M202.203,15.597v8.711h-1.595v-7.407h-2.377v2.331c0,2.078-0.195,3.979-1.461,4.783
c-0.385,0.215-0.944,0.414-1.555,0.414l-0.201-1.281c0.401-0.052,0.746-0.25,0.95-0.463c0.61-0.611,0.715-1.992,0.715-3.337v-3.75
H202.203z"/>
<path fill="#003594" d="M203.58,24.308c0.167-0.258,0.304-0.563,0.405-0.892c0.358-0.995,0.58-2.106,1.271-2.777
c0.188-0.194,0.449-0.35,0.723-0.439v-0.039c-1.029-0.184-1.876-0.906-1.876-2.134c0-0.787,0.335-1.41,0.847-1.813
c0.612-0.472,1.585-0.685,2.696-0.685c0.854,0,1.704,0.083,2.315,0.185v8.595h-1.582V20.73h-0.634
c-0.458,0-0.799,0.111-1.068,0.375c-0.579,0.571-0.813,1.745-1.089,2.521c-0.09,0.23-0.165,0.425-0.298,0.683H203.58z
 M208.379,16.826c-0.169-0.041-0.474-0.09-0.914-0.09c-0.973,0-1.773,0.387-1.773,1.41c0,0.917,0.813,1.417,1.873,1.417
c0.311,0,0.623,0,0.814-0.025V16.826z"/>
<path fill="#003594" d="M212.105,15.713c0.582-0.102,1.368-0.185,2.434-0.185c1.159,0,1.995,0.25,2.56,0.71
c0.51,0.432,0.851,1.115,0.851,1.929c0,0.83-0.258,1.502-0.735,1.966c-0.646,0.636-1.631,0.941-2.755,0.941
c-0.3,0-0.552-0.008-0.772-0.063v3.296h-1.581V15.713z M213.687,19.761c0.201,0.066,0.449,0.074,0.772,0.074
c1.189,0,1.91-0.589,1.91-1.602c0-0.969-0.671-1.476-1.77-1.476c-0.44,0-0.744,0.042-0.913,0.079V19.761z"/>
<polygon fill="#003594" points="221.246,15.597 221.246,19.089 224.93,19.089 224.93,15.597 226.521,15.597 226.521,24.308 
224.93,24.308 224.93,20.469 221.246,20.469 221.246,24.308 219.655,24.308 219.655,15.597 	"/>
<path fill="#003594" d="M236.401,19.863c0,2.92-1.777,4.588-4.163,4.588c-2.47,0-4.024-1.883-4.024-4.429
c0-2.692,1.695-4.583,4.152-4.583C234.899,15.439,236.401,17.369,236.401,19.863 M229.9,19.977c0,1.786,0.891,3.196,2.416,3.196
c1.539,0,2.405-1.437,2.405-3.256c0-1.644-0.812-3.196-2.405-3.196C230.734,16.721,229.9,18.182,229.9,19.977"/>
<path fill="#003594" d="M239.568,15.597v3.078c0,1.38-0.023,2.663-0.102,3.827l0.039,0.008c0.451-0.977,1.007-2.026,1.58-3.01
l2.299-3.903H245v8.711h-1.472v-3.076c0-1.381,0.021-2.497,0.126-3.621h-0.039c-0.413,0.998-0.994,2.084-1.539,3.014l-2.206,3.683
h-1.777v-8.711H239.568z M240.873,13.67c0.042,0.465,0.17,0.799,0.671,0.799c0.476,0,0.639-0.321,0.684-0.799h1.12
c-0.082,1.005-0.712,1.513-1.838,1.513c-1.099,0-1.676-0.532-1.761-1.513H240.873z"/>
<path fill="#003594" d="M152.097,31.112v7.449l0.82,0.032l-0.091,3.391h-1.216l-0.085-2.156h-5.296l-0.092,2.156h-1.215
l-0.072-3.391l0.697-0.032c0.341-0.615,0.646-1.246,0.84-1.932c0.273-0.93,0.378-1.988,0.378-3.241v-2.276H152.097z
 M148.237,33.793c0,1.188-0.13,2.264-0.415,3.174c-0.167,0.573-0.41,1.127-0.65,1.556h3.329V32.42h-2.264V33.793z"/>
<path fill="#003594" d="M155.976,31.114v3.073c0,1.385-0.028,2.665-0.11,3.831l0.043,0.01c0.451-0.981,1.005-2.031,1.573-3.008
l2.302-3.906h1.617v8.716h-1.47v-3.078c0-1.385,0.02-2.498,0.123-3.624h-0.036c-0.417,0.996-0.999,2.084-1.544,3.014l-2.207,3.688
h-1.77v-8.716H155.976z"/>
<path fill="#003594" d="M165.29,37.354l-0.751,2.474h-1.635l2.787-8.716h2.038l2.822,8.716h-1.715l-0.79-2.474H165.29z
 M167.79,36.157l-0.686-2.152c-0.167-0.524-0.311-1.123-0.438-1.626h-0.028c-0.133,0.503-0.271,1.111-0.415,1.626l-0.67,2.152
H167.79z"/>
<polygon fill="#003594" points="177.074,31.114 177.074,32.418 173.682,32.418 173.682,39.83 172.093,39.83 172.093,31.114 	"/>
<polygon fill="#003594" points="180.002,31.114 180.002,34.604 183.696,34.604 183.696,31.114 185.283,31.114 185.283,39.83 
183.696,39.83 183.696,35.982 180.002,35.982 180.002,39.83 178.42,39.83 178.42,31.114 	"/>
<path fill="#003594" d="M195.162,35.374c0,2.931-1.767,4.594-4.166,4.594c-2.463,0-4.018-1.885-4.018-4.438
c0-2.688,1.693-4.575,4.15-4.575C193.662,30.954,195.162,32.882,195.162,35.374 M188.656,35.495c0,1.782,0.891,3.192,2.421,3.192
c1.534,0,2.4-1.431,2.4-3.261c0-1.634-0.808-3.192-2.4-3.192C189.499,32.234,188.656,33.699,188.656,35.495"/>
<path fill="#003594" d="M203.103,39.582c-0.376,0.18-1.205,0.386-2.265,0.386c-2.768,0-4.449-1.728-4.449-4.397
c0-2.864,2.008-4.6,4.669-4.6c1.046,0,1.782,0.223,2.107,0.388l-0.341,1.269c-0.41-0.183-0.99-0.341-1.699-0.341
c-1.773,0-3.055,1.117-3.055,3.209c0,1.928,1.111,3.143,3.041,3.143c0.63,0,1.303-0.128,1.729-0.313L203.103,39.582z"/>
<polygon fill="#003594" points="206.788,32.444 204.305,32.444 204.305,31.114 210.882,31.114 210.882,32.444 208.375,32.444 
208.375,39.828 206.788,39.828 	"/>
<path fill="#003594" d="M213.703,31.114v3.073c0,1.385-0.028,2.665-0.102,3.831l0.034,0.01c0.452-0.981,1.017-2.031,1.581-3.008
l2.299-3.906h1.616v8.716h-1.476v-3.078c0-1.385,0.023-2.498,0.135-3.624h-0.039c-0.419,0.996-0.996,2.084-1.541,3.014l-2.21,3.688
h-1.77v-8.716H213.703z"/>
<path fill="#003594" d="M222.842,31.114v3.733h0.247l2.682-3.733h1.905l-3.151,3.929c1.268,0.231,1.799,1.06,2.203,2.158
c0.325,0.918,0.581,1.801,0.98,2.629H226c-0.311-0.595-0.504-1.32-0.725-1.98c-0.352-1.063-0.813-1.828-2.071-1.828h-0.362v3.809
h-1.578v-8.716H222.842z"/>
<path fill="#003594" d="M230.537,31.114v3.073c0,1.385-0.02,2.665-0.106,3.831l0.043,0.01c0.449-0.981,1.012-2.031,1.578-3.008
l2.299-3.906h1.615v8.716h-1.477v-3.078c0-1.385,0.033-2.498,0.133-3.624h-0.035c-0.412,0.996-0.994,2.084-1.539,3.014
l-2.214,3.688h-1.773v-8.716H230.537z"/>
<path fill="#00A9E0" d="M84.929,0.022H46.294c-0.348,0-0.623,0.279-0.623,0.625V39.28c0,0.343,0.275,0.625,0.623,0.625h38.634
c0.348,0,0.624-0.282,0.624-0.625V0.646C85.553,0.301,85.277,0.022,84.929,0.022"/>
<path fill="#00A9E0" d="M131.204,18.263c-0.803-9.761-8.485-17.434-18.336-18.245L91.949,0.023c-0.347,0-0.623,0.278-0.623,0.623
V39.28c0,0.343,0.276,0.625,0.623,0.625h20.937c0.016,0,0.035-0.002,0.048-0.002c9.787-0.813,17.473-8.502,18.275-18.34
L131.204,18.263z"/>
<path fill="#00B388" d="M39.895,0.646c-0.004-0.345-0.28-0.623-0.625-0.623L18.246,0.027C8.475,0.822,0.801,8.514,0,18.366
l0.007,3.297c0.796,9.772,8.488,17.438,18.289,18.242c0.013,0.003,0.036,0.003,0.048,0.003l20.919-0.003
c0.346,0,0.627-0.282,0.627-0.625c0-4.221,0.008-8.447,0.012-12.67C39.913,18.619,39.924,9.559,39.895,0.646"/>
<path fill="#FFFFFF" d="M33.099,26.237c-0.436,0.725-0.953,1.406-1.531,2.029c-0.729,0.789-1.565,1.476-2.476,2.044
c-0.917,0.571-1.93,1.018-3.003,1.328c-1.074,0.308-2.21,0.463-3.37,0.463c-1.675,0-3.263-0.319-4.726-0.954
c-1.478-0.634-2.776-1.515-3.865-2.596c-1.091-1.089-1.964-2.387-2.593-3.856c-0.638-1.474-0.958-3.064-0.958-4.731
c0-1.643,0.32-3.225,0.958-4.694c0.628-1.47,1.502-2.771,2.599-3.87c1.091-1.104,2.387-1.983,3.852-2.619
c1.469-0.631,3.067-0.952,4.732-0.952c1.123,0,2.231,0.149,3.284,0.454c1.045,0.298,2.035,0.722,2.936,1.271
c0.902,0.541,1.726,1.207,2.444,1.962c0.566,0.592,1.07,1.247,1.515,1.936c0.093,0.145,0.116,0.325,0.075,0.499
c-0.044,0.161-0.16,0.305-0.31,0.388l-0.652,0.349c-0.317,0.168-0.621,0.321-0.912,0.47l-0.975,0.486
c-0.242,0.118-0.521,0.262-0.867,0.426c-0.275,0.132-0.612,0.045-0.786-0.213c-0.559-0.824-1.298-1.505-2.201-2.044
c-1.07-0.634-2.26-0.951-3.551-0.951c-0.979,0-1.909,0.19-2.772,0.567c-0.858,0.381-1.616,0.894-2.26,1.527
c-0.646,0.632-1.161,1.396-1.523,2.261c-0.37,0.871-0.557,1.796-0.557,2.749c0,0.981,0.187,1.909,0.557,2.767
c0.362,0.86,0.878,1.623,1.523,2.264c0.646,0.646,1.407,1.161,2.262,1.527c0.861,0.364,1.791,0.554,2.77,0.554
c1.333,0,2.567-0.341,3.674-1.027c0.931-0.57,1.697-1.315,2.275-2.209c0.176-0.268,0.523-0.362,0.813-0.216l0.831,0.434
c0.354,0.178,0.667,0.347,0.954,0.504c0.296,0.158,0.592,0.313,0.908,0.468c0.182,0.092,0.408,0.195,0.663,0.321
c0.159,0.078,0.281,0.215,0.331,0.386C33.215,25.904,33.196,26.089,33.099,26.237"/>
<path fill="#FFFFFF" d="M77.982,31.313c0,0.344-0.273,0.623-0.626,0.623h-3.208c-0.343,0-0.627-0.279-0.627-0.623V14.967
l-5.789,16.546c-0.085,0.253-0.318,0.422-0.594,0.422h-3.167c-0.258,0-0.497-0.169-0.584-0.418l-5.721-16.38
c0.004,0.022-0.052,0-0.071,0v16.175c0,0.344-0.279,0.623-0.627,0.623h-3.106c-0.346,0-0.631-0.279-0.631-0.623V8.618
c0-0.342,0.285-0.624,0.631-0.624h5.762c0.269,0,0.509,0.176,0.594,0.426l5.327,16.169L70.904,8.42
c0.081-0.25,0.321-0.426,0.594-0.426h5.859c0.353,0,0.626,0.282,0.626,0.624V31.313z"/>
<path fill="#FFFFFF" d="M120.159,14.632c-0.548-1.469-1.313-2.711-2.28-3.688c-0.969-0.981-2.136-1.724-3.45-2.213
c-1.321-0.486-2.774-0.737-4.314-0.737h-9.703c-0.346,0-0.621,0.282-0.621,0.624v22.695c0,0.344,0.274,0.623,0.621,0.623h9.703
c1.823,0,3.432-0.313,4.782-0.923c1.347-0.615,2.485-1.462,3.386-2.531c0.898-1.07,1.583-2.355,2.03-3.823
c0.445-1.474,0.667-3.095,0.667-4.829C120.979,17.855,120.699,16.104,120.159,14.632 M115.214,23.688
c-0.335,0.91-0.786,1.657-1.34,2.226c-0.558,0.568-1.204,0.981-1.917,1.226c-0.711,0.244-1.453,0.371-2.21,0.371h-4.695V12.419
h3.751c1.292,0,2.397,0.183,3.274,0.551c0.874,0.366,1.594,0.909,2.13,1.596c0.533,0.688,0.922,1.527,1.159,2.5
c0.229,0.969,0.35,2.067,0.35,3.264C115.716,21.646,115.543,22.775,115.214,23.688"/>
</svg>