<svg xmlns="http://www.w3.org/2000/svg" width="24px" height="24px" viewBox="0 0 24 24">

<path fill="#00B388" d="M24.033,0.379c-0.003-0.209-0.17-0.375-0.376-0.375L11.007,0.006C5.129,0.485,0.514,5.112,0.032,11.039
l0.004,1.98c0.479,5.883,5.106,10.496,11.003,10.978C11.045,24,11.06,24,11.066,24l12.585-0.003c0.21,0,0.379-0.173,0.379-0.377
c0-2.538,0.006-5.08,0.007-7.624C24.044,11.191,24.049,5.739,24.033,0.379"/>
<path fill="#FFFFFF" d="M19.946,15.775c-0.265,0.432-0.573,0.847-0.924,1.222c-0.436,0.476-0.938,0.887-1.488,1.226
c-0.551,0.35-1.16,0.611-1.805,0.798c-0.647,0.187-1.333,0.28-2.027,0.28c-1.008,0-1.965-0.188-2.846-0.571
c-0.889-0.384-1.668-0.91-2.323-1.562c-0.656-0.656-1.183-1.435-1.561-2.32C6.588,13.957,6.395,13.001,6.395,12
c0-0.99,0.193-1.939,0.578-2.824C7.35,8.291,7.877,7.507,8.535,6.849c0.656-0.666,1.438-1.195,2.319-1.578
c0.882-0.379,1.844-0.572,2.848-0.572c0.674,0,1.34,0.089,1.974,0.274C16.303,5.15,16.9,5.408,17.44,5.736
c0.544,0.327,1.042,0.727,1.473,1.182c0.341,0.354,0.644,0.75,0.91,1.162c0.055,0.088,0.07,0.198,0.044,0.302
c-0.026,0.096-0.096,0.181-0.187,0.232l-0.391,0.21c-0.191,0.099-0.375,0.192-0.55,0.284l-0.586,0.292
c-0.145,0.071-0.314,0.156-0.521,0.256c-0.166,0.079-0.369,0.028-0.474-0.128c-0.335-0.497-0.779-0.907-1.325-1.23
c-0.643-0.383-1.359-0.571-2.133-0.571c-0.59,0-1.148,0.113-1.669,0.34c-0.517,0.229-0.972,0.539-1.36,0.917
c-0.389,0.382-0.698,0.84-0.918,1.36C9.532,10.869,9.422,11.428,9.422,12c0,0.592,0.11,1.148,0.333,1.665
c0.22,0.519,0.529,0.973,0.918,1.363c0.39,0.384,0.848,0.696,1.361,0.921c0.519,0.212,1.077,0.328,1.667,0.328
c0.799,0,1.543-0.205,2.208-0.615c0.559-0.346,1.022-0.791,1.367-1.33c0.106-0.164,0.315-0.217,0.491-0.131l0.5,0.262
c0.214,0.104,0.402,0.208,0.574,0.304c0.18,0.095,0.356,0.188,0.545,0.281c0.111,0.058,0.245,0.117,0.399,0.195
c0.096,0.048,0.171,0.125,0.199,0.231C20.016,15.574,20.004,15.688,19.946,15.775"/>
</svg>
